<svg width="116" height="116" viewBox="0 0 116 116" fill="none" xmlns="http://www.w3.org/2000/svg">
<path d="M13.2917 58.0001C13.2917 33.3084 33.3083 13.2917 58 13.2917C82.6916 13.2917 102.708 33.3084 102.708 58.0001C102.708 70.3468 97.7083 81.5191 89.6134 89.6135C88.1977 91.0292 88.1977 93.3245 89.6134 94.7402C91.0291 96.1559 93.3244 96.1559 94.7401 94.7402C104.139 85.3418 109.958 72.3469 109.958 58.0001C109.958 29.3043 86.696 6.04175 58 6.04175C29.3042 6.04175 6.04169 29.3043 6.04169 58.0001C6.04169 72.3469 11.8613 85.3418 21.2599 94.7402C22.6756 96.1559 24.9708 96.1559 26.3864 94.7402C27.8021 93.3245 27.8021 91.0292 26.3864 89.6135C18.2919 81.5191 13.2917 70.3468 13.2917 58.0001Z" fill="#595AAD"/>
<path d="M32.625 58C32.625 43.9858 43.9857 32.625 58 32.625C72.0142 32.625 83.375 43.9858 83.375 58C83.375 65.0083 80.5388 71.3468 75.9428 75.9428C74.5271 77.3585 74.5271 79.6538 75.9428 81.0695C77.3585 82.4852 79.6538 82.4852 81.0695 81.0695C86.9695 75.1694 90.625 67.0084 90.625 58C90.625 39.9817 76.0182 25.375 58 25.375C39.9817 25.375 25.375 39.9817 25.375 58C25.375 67.0084 29.0306 75.1694 34.9306 81.0695C36.3463 82.4852 38.6415 82.4852 40.0572 81.0695C41.4728 79.6538 41.4728 77.3585 40.0572 75.9428C35.4612 71.3468 32.625 65.0083 32.625 58Z" fill="#595AAD"/>
<path fill-rule="evenodd" clip-rule="evenodd" d="M44.7083 57.9999C44.7083 50.6591 50.6591 44.7083 58 44.7083C65.3408 44.7083 71.2916 50.6591 71.2916 57.9999C71.2916 65.3408 65.3408 71.2916 58 71.2916C50.6591 71.2916 44.7083 65.3408 44.7083 57.9999ZM58 51.9583C54.663 51.9583 51.9583 54.663 51.9583 57.9999C51.9583 61.3369 54.663 64.0416 58 64.0416C61.3369 64.0416 64.0416 61.3369 64.0416 57.9999C64.0416 54.663 61.3369 51.9583 58 51.9583Z" fill="#595AAD"/>
<path fill-rule="evenodd" clip-rule="evenodd" d="M64.7328 76.0931C62.9073 74.7993 60.9469 73.8365 58.5669 73.7219C58.1895 73.704 57.8105 73.704 57.433 73.7219C55.0531 73.8365 53.0927 74.7993 51.2672 76.0931C49.5658 77.2995 47.6864 79.0149 45.5036 81.0077L45.1234 81.3547C40.2664 85.7883 36.3387 89.3737 33.8363 92.3597C31.434 95.2264 29.2264 98.8243 30.6513 102.833C30.8414 103.368 31.0765 103.885 31.3532 104.38C33.3383 107.933 37.373 108.996 41.2504 109.467C45.2965 109.958 50.8239 109.958 57.7274 109.958H58.2721C65.176 109.958 70.7034 109.958 74.7494 109.467C78.6267 108.996 82.6616 107.933 84.6466 104.38C84.9236 103.885 85.1585 103.368 85.3489 102.833C86.7738 98.8243 84.5659 95.2264 82.1637 92.3597C79.6611 89.3737 75.7335 85.7883 70.8765 81.3547L70.4961 81.0077C68.3134 79.0149 66.4342 77.2995 64.7328 76.0931ZM55.4596 82.0077C56.6684 81.1512 57.2987 80.9869 57.781 80.9637C57.927 80.9564 58.073 80.9564 58.2189 80.9637C58.7013 80.9869 59.3316 81.1512 60.5404 82.0077C61.8319 82.9236 63.3805 84.3287 65.7672 86.507C70.8977 91.1905 74.4556 94.4492 76.6069 97.0166C77.6712 98.2868 78.1927 99.1617 78.416 99.748C78.5924 100.211 78.5368 100.355 78.5199 100.398L78.5175 100.404C78.4648 100.553 78.3986 100.7 78.3179 100.844C78.2236 101.012 77.6518 101.811 73.8751 102.27C70.3202 102.702 65.2379 102.708 58 102.708C50.7621 102.708 45.68 102.702 42.1251 102.27C38.3483 101.811 37.7763 101.012 37.6824 100.844C37.6016 100.7 37.5352 100.553 37.4825 100.404L37.4802 100.398C37.4634 100.355 37.4076 100.211 37.5839 99.748C37.8072 99.1617 38.3286 98.2868 39.3931 97.0166C41.5444 94.4492 45.1025 91.1905 50.2328 86.507C52.6195 84.3287 54.1681 82.9236 55.4596 82.0077Z" fill="#595AAD"/>
</svg>
