<svg width="116" height="116" viewBox="0 0 116 116" fill="none" xmlns="http://www.w3.org/2000/svg">
<path d="M101.942 12.992L94.1594 19.8723L89.436 19.9448L79.5398 30.2941C85.9198 37.0729 89.8565 46.1825 89.8565 56.2274C89.8565 77.1545 72.8879 94.1267 51.9572 94.1267C31.0264 94.1267 14.0614 77.1545 14.0614 56.2274C14.0614 35.2966 31.03 18.328 51.9572 18.328C61.5453 18.328 70.2743 21.9131 76.9479 27.782L86.4998 18.2301L86.507 14.0215L93.8368 5.55713L93.8295 13.0935L101.942 12.992ZM75.7082 34.1258L66.0729 43.7646C69.3354 47.3063 71.3763 51.9934 71.3763 57.188C71.3763 68.1536 62.4914 77.0385 51.5258 77.0385C40.5602 77.0385 31.6717 68.1536 31.6717 57.188C31.6717 46.226 40.5602 37.3339 51.5258 37.3339C55.9882 37.3339 60.0627 38.86 63.3832 41.3468L73.1199 31.61C67.4323 26.7163 60.0518 23.7401 51.9572 23.7401C34.017 23.7401 19.4735 38.2873 19.4735 56.2274C19.4735 74.1675 34.017 88.7074 51.9572 88.7074C69.8973 88.7074 84.4408 74.1639 84.4408 56.2274C84.4372 47.6796 81.1094 39.9258 75.7082 34.1258ZM51.3735 62.901C48.3865 62.901 45.9614 60.4795 45.9614 57.4889C45.9614 54.4983 48.3865 52.0731 51.3735 52.0731C51.7505 52.0731 52.084 52.2145 52.4429 52.2906L60.8275 43.906C58.1885 42.0536 54.9949 40.948 51.5258 40.948C42.5539 40.948 35.2858 48.2234 35.2858 57.1916C35.2858 66.1599 42.5575 73.4316 51.5258 73.4316C60.494 73.4316 67.7658 66.1599 67.7658 57.1916C67.7658 52.9939 66.1309 49.2058 63.5137 46.3203L55.593 54.2445C56.2927 55.158 56.7857 56.2528 56.7857 57.4925C56.7893 60.4795 54.3642 62.901 51.3735 62.901ZM35.7244 96.9615C36.801 97.5053 37.9067 97.9946 39.0413 98.4333L32.6323 109.533C32.132 110.396 31.03 110.686 30.1637 110.193C29.3045 109.696 29.0073 108.594 29.5039 107.728L35.7244 96.9615ZM53.853 99.7999V104.857C53.853 105.854 53.041 106.662 52.0478 106.662C51.0509 106.662 50.2425 105.854 50.2425 104.857V99.7999C50.8443 99.8289 51.4388 99.8905 52.0478 99.8905C52.6568 99.8905 53.2513 99.8289 53.853 99.7999ZM75.9474 107.731C76.444 108.594 76.1504 109.7 75.284 110.196C74.4177 110.693 73.3193 110.403 72.8154 109.537L66.41 98.4369C67.541 97.9983 68.6503 97.5089 69.7269 96.9651L75.9474 107.731Z" fill="#595AAD"/>
</svg>
