<svg width="116" height="116" viewBox="0 0 116 116" fill="none" xmlns="http://www.w3.org/2000/svg">
<path d="M58 48.3334C68.6775 48.3334 77.3334 39.6776 77.3334 29.0001C77.3334 18.3226 68.6775 9.66675 58 9.66675C47.3225 9.66675 38.6667 18.3226 38.6667 29.0001C38.6667 39.6776 47.3225 48.3334 58 48.3334Z" fill="#595AAD"/>
<path fill-rule="evenodd" clip-rule="evenodd" d="M65.3109 103.856C67.788 106.333 71.7755 106.333 79.75 106.333C87.7245 106.333 91.712 106.333 94.1891 103.856C96.6666 101.379 96.6666 97.3912 96.6666 89.4167C96.6666 81.4421 96.6666 77.4546 94.1891 74.9776C91.712 72.5 87.7245 72.5 79.75 72.5C71.7755 72.5 67.788 72.5 65.3109 74.9776C62.8333 77.4546 62.8333 81.4421 62.8333 89.4167C62.8333 97.3912 62.8333 101.379 65.3109 103.856ZM75.0452 96.5531C71.6517 94.1234 67.6666 91.2693 67.6666 86.3224C67.6666 80.8612 74.3125 76.9877 79.75 82.2382C85.1875 76.9877 91.8333 80.8612 91.8333 86.3224C91.8333 91.2693 87.8482 94.1234 84.4547 96.5531C84.1024 96.8054 83.7558 97.0533 83.4214 97.2989C82.1666 98.2177 80.9583 99.0833 79.75 99.0833C78.5416 99.0833 77.3333 98.2177 76.0786 97.2989C75.7441 97.0533 75.3976 96.8054 75.0452 96.5531Z" fill="#595AAD"/>
<path d="M74.5044 65.2857C69.6222 63.7235 63.9934 62.8333 58 62.8333C39.3144 62.8333 24.1667 71.4893 24.1667 82.1666C24.1667 92.5128 38.3885 100.961 56.2702 101.475C56.1392 100.865 56.0377 100.259 55.9579 99.6637C55.5824 96.8715 55.5829 93.4597 55.5834 89.8323V89.0009C55.5829 85.3735 55.5824 81.9617 55.9579 79.1694C56.3755 76.0621 57.3741 72.6609 60.1842 69.8508C62.9948 67.0407 66.3955 66.0421 69.5029 65.624C71.0109 65.4215 72.6992 65.3282 74.5044 65.2857Z" fill="#595AAD"/>
</svg>
