<svg width="116" height="116" viewBox="0 0 116 116" fill="none" xmlns="http://www.w3.org/2000/svg">
<g clip-path="url(#clip0_161_219)">
<path d="M58 14.9833C70.8083 18.6083 84.825 22.9583 91.8333 25.3749V63.3166C91.8333 71.5332 82.8917 86.0332 58 100.533C33.1083 85.7916 24.1667 71.5332 24.1667 63.3166V25.3749C31.175 22.7166 45.1917 18.6083 58 14.9833ZM58 4.83325C58 4.83325 14.5 17.1583 14.5 19.3333V63.3166C14.5 85.5499 46.6417 105.125 55.5833 110.442C56.2987 110.92 57.1397 111.175 58 111.175C58.8603 111.175 59.7013 110.92 60.4167 110.442C69.6 105.367 101.5 85.5499 101.5 63.3166V19.3333C101.5 17.1583 58 4.83325 58 4.83325Z" fill="#595AAD"/>
<path d="M47.3667 71.0498L35.2834 59.2082C34.446 58.3523 33.9383 57.228 33.8498 56.034C33.7614 54.8399 34.0979 53.653 34.8 52.6832C35.1912 52.1007 35.7106 51.6157 36.3185 51.2653C36.9263 50.9148 37.6063 50.7084 38.3064 50.6617C39.0064 50.615 39.7078 50.7294 40.3568 50.996C41.0058 51.2627 41.585 51.6745 42.05 52.1998L50.75 60.8998L73.95 37.6998C74.8808 37.0018 76.0321 36.6628 77.1926 36.7453C78.3532 36.8278 79.445 37.3261 80.2677 38.1488C81.0904 38.9715 81.5887 40.0633 81.6712 41.2239C81.7537 42.3844 81.4148 43.5357 80.7167 44.4665L54.1333 71.0498C53.7032 71.5186 53.1804 71.8929 52.5979 72.149C52.0155 72.405 51.3862 72.5372 50.75 72.5372C50.1138 72.5372 49.4845 72.405 48.9021 72.149C48.3197 71.8929 47.7968 71.5186 47.3667 71.0498Z" fill="#595AAD"/>
</g>
<defs>
<clipPath id="clip0_161_219">
<rect width="116" height="116" fill="white"/>
</clipPath>
</defs>
</svg>
