<svg width="116" height="116" viewBox="0 0 116 116" fill="none" xmlns="http://www.w3.org/2000/svg">
<g clip-path="url(#clip0_161_231)">
<path d="M111.167 53.1667C109.885 53.1667 108.655 53.6759 107.749 54.5823C106.843 55.4887 106.333 56.7181 106.333 58C106.373 69.2388 102.507 80.1424 95.398 88.8471C88.2888 97.5517 78.377 103.517 67.3568 105.723C56.3366 107.93 44.8922 106.24 34.9797 100.943C25.0672 95.6468 17.3021 87.0717 13.0115 76.6841C8.72091 66.2964 8.17128 54.741 11.4565 43.993C14.7418 33.245 21.658 23.9717 31.023 17.758C40.388 11.5443 51.6203 8.77615 62.8002 9.92656C73.9801 11.077 84.4133 16.0746 92.3167 24.0652C92.1577 24.1085 91.9963 24.1424 91.8333 24.1667H77.3333C76.0515 24.1667 74.8221 24.6759 73.9157 25.5823C73.0092 26.4887 72.5 27.7181 72.5 29C72.5 30.2819 73.0092 31.5113 73.9157 32.4177C74.8221 33.3241 76.0515 33.8333 77.3333 33.8333H91.8333C95.679 33.8333 99.3671 32.3057 102.086 29.5864C104.806 26.8671 106.333 23.179 106.333 19.3333V4.83333C106.333 3.55145 105.824 2.32208 104.918 1.41565C104.011 0.509225 102.782 0 101.5 0C100.218 0 98.9887 0.509225 98.0823 1.41565C97.1759 2.32208 96.6667 3.55145 96.6667 4.83333V14.8142C86.7707 5.9669 74.1381 0.783804 60.8799 0.130996C47.6218 -0.521813 34.5412 3.39521 23.8239 11.2275C13.1066 19.0598 5.40191 30.333 1.99726 43.1631C-1.40739 55.9933 -0.305733 69.6033 5.11813 81.7189C10.542 93.8344 19.9595 103.722 31.797 109.728C43.6344 115.735 57.1748 117.497 70.1553 114.72C83.1359 111.944 94.7703 104.796 103.115 94.4726C111.459 84.1489 116.007 71.2742 116 58C116 56.7181 115.491 55.4887 114.584 54.5823C113.678 53.6759 112.449 53.1667 111.167 53.1667ZM58 29C56.7181 29 55.4888 29.5092 54.5823 30.4157C53.6759 31.3221 53.1667 32.5515 53.1667 33.8333V58C53.1669 59.2818 53.6764 60.511 54.5828 61.4172L69.0828 75.9172C69.9944 76.7976 71.2153 77.2848 72.4826 77.2738C73.7499 77.2627 74.9622 76.7544 75.8583 75.8583C76.7544 74.9622 77.2627 73.7499 77.2738 72.4826C77.2848 71.2153 76.7976 69.9944 75.9172 69.0828L62.8333 55.999V33.8333C62.8333 32.5515 62.3241 31.3221 61.4177 30.4157C60.5113 29.5092 59.2819 29 58 29Z" fill="#595AAD"/>
</g>
<defs>
<clipPath id="clip0_161_231">
<rect width="116" height="116" fill="white"/>
</clipPath>
</defs>
</svg>
