<svg width="22" height="38" viewBox="0 0 22 38" fill="none" xmlns="http://www.w3.org/2000/svg">
<path fill-rule="evenodd" clip-rule="evenodd" d="M12.9375 10.6875C14.2251 10.6875 15.1226 10.6884 15.8213 10.7483C16.4482 10.802 16.8312 10.8981 17.1203 11.036L1.26148 27.6604C0.819091 28.1241 0.819091 28.8759 1.26148 29.3396C1.70386 29.8034 2.42113 29.8034 2.86352 29.3396L18.7222 12.7153C18.8538 13.0183 18.9455 13.4198 18.9967 14.0769C19.0538 14.8094 19.0547 15.7503 19.0547 17.1V23.75C19.0547 24.4058 19.5619 24.9375 20.1875 24.9375C20.8131 24.9375 21.3203 24.4058 21.3203 23.75V17.1V17.0492C21.3203 15.7622 21.3203 14.7241 21.2548 13.8835C21.1874 13.018 21.0448 12.2578 20.703 11.5544C20.1599 10.4372 19.2935 9.5289 18.2277 8.95966C17.5567 8.60128 16.8315 8.45188 16.0059 8.38115C15.204 8.31249 14.2136 8.31248 12.986 8.3125H12.9375H6.59375C5.96812 8.3125 5.46093 8.84417 5.46093 9.5C5.46093 10.1558 5.96812 10.6875 6.59375 10.6875H12.9375Z" fill="white"/>
</svg>
