<svg width="34" height="34" viewBox="0 0 34 34" fill="none" xmlns="http://www.w3.org/2000/svg">
<g clip-path="url(#clip0_162_489)">
<path d="M18.1508 0.034668C26.7774 0.034668 33.8354 7.09274 33.8354 15.7193V18.1699C33.8354 26.7964 26.7773 33.8545 18.1508 33.8545H15.7002C7.0737 33.8545 0.015625 26.7964 0.015625 18.1699V15.7193C0.015625 7.09274 7.0737 0.034668 15.7002 0.034668H18.1508ZM17.2338 8.53495L17.0156 8.53467C15.1985 8.53467 13.3814 8.59473 13.3814 8.59473C10.7273 8.59473 8.57569 10.7463 8.57569 13.4004C8.57569 13.4004 8.52053 14.9607 8.51593 16.6355L8.51562 16.8545C8.51562 18.7296 8.57569 20.6689 8.57569 20.6689C8.57569 23.323 10.7273 25.4746 13.3814 25.4746C13.3814 25.4746 15.0803 25.5347 16.8354 25.5347C18.7106 25.5347 20.71 25.4746 20.71 25.4746C23.3641 25.4746 25.4556 23.3831 25.4556 20.729C25.4556 20.729 25.5156 18.8116 25.5156 16.9746L25.5145 16.5435C25.5064 14.8954 25.4555 13.3403 25.4555 13.3403C25.4555 10.6862 23.364 8.59473 20.7099 8.59473C20.7099 8.59473 18.9799 8.53938 17.2338 8.53495ZM17.0156 10.0646C18.5057 10.0646 20.4162 10.1139 20.4162 10.1139C22.5926 10.1139 23.9363 11.4577 23.9363 13.634C23.9363 13.634 23.9856 15.5119 23.9856 16.9853C23.9856 18.4916 23.9363 20.4352 23.9363 20.4352C23.9363 22.6116 22.5926 23.9553 20.4162 23.9553C20.4162 23.9553 18.7267 23.9967 17.2607 24.0036L16.8679 24.0046C15.4287 24.0046 13.6751 23.9553 13.6751 23.9553C11.4988 23.9553 10.0949 22.5514 10.0949 20.3751C10.0949 20.3751 10.0456 18.4245 10.0456 16.8869C10.0456 15.4477 10.0949 13.634 10.0949 13.634C10.0949 11.4577 11.4988 10.1139 13.6751 10.1139C13.6751 10.1139 15.5255 10.0646 17.0156 10.0646ZM17.0156 12.6805C14.6108 12.6805 12.6614 14.6299 12.6614 17.0346C12.6614 19.4394 14.6108 21.3888 17.0156 21.3888C19.4203 21.3888 21.3698 19.4394 21.3698 17.0346C21.3698 14.6299 19.4203 12.6805 17.0156 12.6805ZM17.0156 14.2013C18.5804 14.2013 19.8489 15.4698 19.8489 17.0346C19.8489 18.5994 18.5804 19.868 17.0156 19.868C15.4508 19.868 14.1822 18.5994 14.1822 17.0346C14.1822 15.4698 15.4508 14.2013 17.0156 14.2013ZM21.5781 11.4721C20.9971 11.4721 20.526 11.9455 20.526 12.5294C20.526 13.1133 20.9971 13.5867 21.5781 13.5867C22.1591 13.5867 22.6302 13.1133 22.6302 12.5294C22.6302 11.9455 22.1591 11.4721 21.5781 11.4721Z" fill="#595AAD"/>
</g>
<defs>
<clipPath id="clip0_162_489">
<rect width="34" height="34" fill="white"/>
</clipPath>
</defs>
</svg>
