<svg width="158" height="38" viewBox="0 0 158 38" fill="none" xmlns="http://www.w3.org/2000/svg">
<path d="M5.23197 36.864H-2.89679e-05V1.05601H5.23197V27.792L23.424 1.05601H29.712L17.952 17.904L24.384 27.552C25.504 29.216 26.512 30.32 27.408 30.864C28.336 31.408 29.184 31.648 29.952 31.584L31.44 31.536V36.864H29.568C28.736 36.864 27.936 36.816 27.168 36.72C26.432 36.624 25.696 36.4 24.96 36.048C24.224 35.664 23.472 35.104 22.704 34.368C21.936 33.6 21.136 32.544 20.304 31.2L14.88 22.512L5.23197 36.864ZM67.4493 25.968C67.4493 27.76 67.0333 29.392 66.2013 30.864C65.4013 32.304 64.2813 33.536 62.8413 34.56C61.4333 35.552 59.7533 36.32 57.8013 36.864C55.8493 37.408 53.7373 37.68 51.4653 37.68C50.0893 37.68 48.7133 37.504 47.3373 37.152C45.9933 36.832 44.6813 36.368 43.4013 35.76C42.1213 35.12 40.9053 34.352 39.7533 33.456C38.6333 32.528 37.6253 31.488 36.7293 30.336L40.4733 26.832C40.9533 27.408 41.5293 28.032 42.2013 28.704C42.8733 29.344 43.6573 29.952 44.5533 30.528C45.4813 31.072 46.5053 31.536 47.6253 31.92C48.7773 32.272 50.0573 32.448 51.4653 32.448C52.7773 32.448 54.0733 32.32 55.3533 32.064C56.6333 31.808 57.7693 31.424 58.7613 30.912C59.7533 30.368 60.5533 29.696 61.1613 28.896C61.7693 28.064 62.0733 27.088 62.0733 25.968C62.0733 24.592 61.7533 23.536 61.1133 22.8C60.5053 22.064 59.7053 21.536 58.7133 21.216C57.7213 20.864 56.5853 20.656 55.3053 20.592C54.0253 20.528 52.7453 20.496 51.4653 20.496C47.1453 20.496 43.8653 19.728 41.6253 18.192C39.3853 16.656 38.2653 14.336 38.2653 11.232C38.2653 9.79201 38.5853 8.40001 39.2253 7.05601C39.8973 5.68001 40.8093 4.48001 41.9613 3.45601C43.1453 2.40001 44.5373 1.56801 46.1373 0.960012C47.7693 0.320013 49.5453 1.33514e-05 51.4653 1.33514e-05C54.1853 1.33514e-05 56.7293 0.416013 59.0973 1.24801C61.4653 2.08001 63.7213 3.55201 65.8653 5.66401L62.6013 9.50401C61.6413 8.73601 60.7293 8.08001 59.8653 7.53601C59.0333 6.99201 58.1853 6.56001 57.3213 6.24001C56.4573 5.88801 55.5453 5.64801 54.5853 5.52001C53.6573 5.36001 52.6173 5.28001 51.4653 5.28001C50.4413 5.28001 49.4813 5.44001 48.5853 5.76001C47.6893 6.08001 46.9053 6.51201 46.2333 7.05601C45.5613 7.60001 45.0333 8.24001 44.6493 8.97601C44.2653 9.68001 44.0733 10.416 44.0733 11.184C44.0733 11.728 44.1853 12.256 44.4093 12.768C44.6333 13.248 45.0333 13.68 45.6093 14.064C46.1853 14.448 46.9533 14.752 47.9133 14.976C48.9053 15.2 50.1693 15.312 51.7053 15.312C54.8413 15.312 57.4173 15.552 59.4333 16.032C61.4813 16.512 63.0973 17.216 64.2813 18.144C65.4653 19.04 66.2813 20.16 66.7293 21.504C67.2093 22.816 67.4493 24.304 67.4493 25.968ZM75.1406 36.864V1.05601H80.2766V36.864H75.1406ZM96.0277 17.28C97.1157 16.64 98.2197 16.24 99.3397 16.08C100.492 15.92 101.66 15.84 102.844 15.84H108.988C110.62 15.84 111.916 15.44 112.876 14.64C113.836 13.808 114.316 12.56 114.316 10.896C114.316 9.20001 113.82 8.01601 112.828 7.34401C111.836 6.67201 110.556 6.33601 108.988 6.33601H96.0277V17.28ZM96.0277 31.632H109.516C110.22 31.632 110.956 31.536 111.724 31.344C112.524 31.12 113.244 30.8 113.884 30.384C114.524 29.936 115.052 29.392 115.468 28.752C115.884 28.08 116.092 27.296 116.092 26.4C116.092 25.344 115.884 24.48 115.468 23.808C115.052 23.136 114.508 22.608 113.836 22.224C113.164 21.84 112.396 21.568 111.532 21.408C110.7 21.248 109.852 21.168 108.988 21.168H102.844C101.692 21.168 100.54 21.264 99.3877 21.456C98.2357 21.648 97.1157 22.032 96.0277 22.608V31.632ZM121.276 27.072C121.276 28.864 120.908 30.384 120.172 31.632C119.468 32.848 118.524 33.856 117.34 34.656C116.188 35.424 114.876 35.984 113.404 36.336C111.932 36.688 110.46 36.864 108.988 36.864H90.8437V1.05601H108.988C110.492 1.05601 111.884 1.28001 113.164 1.72801C114.476 2.14401 115.596 2.76801 116.524 3.60001C117.484 4.43201 118.22 5.45601 118.732 6.67201C119.276 7.88801 119.548 9.28001 119.548 10.848C119.548 12.384 119.276 13.776 118.732 15.024C118.188 16.272 117.388 17.232 116.332 17.904C116.94 18.192 117.548 18.608 118.156 19.152C118.764 19.664 119.292 20.304 119.74 21.072C120.188 21.84 120.556 22.72 120.844 23.712C121.132 24.704 121.276 25.824 121.276 27.072ZM135.169 31.632H157.249V36.864H129.937V1.05601H155.137V6.33601H135.169V17.184C136.257 16.544 137.361 16.16 138.481 16.032C139.601 15.872 140.753 15.792 141.937 15.792H149.761V21.12H141.937C140.785 21.12 139.633 21.216 138.481 21.408C137.361 21.568 136.257 21.936 135.169 22.512V31.632Z" fill="#595AAD"/>
</svg>
