<svg width="22" height="37" viewBox="0 0 22 37" fill="none" xmlns="http://www.w3.org/2000/svg">
<g clip-path="url(#clip0_162_468)">
<path d="M11.5 27.75C10.6485 27.75 9.95831 28.4402 9.95831 29.2917C9.95831 30.1431 10.6485 30.8333 11.5 30.8333C12.3514 30.8333 13.0416 30.1431 13.0416 29.2917C13.0416 28.4402 12.3514 27.75 11.5 27.75Z" fill="#6B6BDA"/>
<path fill-rule="evenodd" clip-rule="evenodd" d="M22.2916 6.1665C22.2916 3.61219 20.221 1.5415 17.6666 1.5415H5.33331C2.779 1.5415 0.708313 3.61219 0.708313 6.1665V30.8332C0.708313 33.3876 2.779 35.4582 5.33331 35.4582H17.6666C20.221 35.4582 22.2916 33.3876 22.2916 30.8332V6.1665ZM19.2083 6.1665C19.2083 5.31507 18.5181 4.62484 17.6666 4.62484H5.33331C4.48188 4.62484 3.79165 5.31507 3.79165 6.1665V23.1248H19.2083V6.1665ZM3.79165 30.8332V26.2082H19.2083V30.8332C19.2083 31.6846 18.5181 32.3748 17.6666 32.3748H5.33331C4.48188 32.3748 3.79165 31.6846 3.79165 30.8332Z" fill="#6B6BDA"/>
</g>
<defs>
<clipPath id="clip0_162_468">
<rect width="22" height="37" fill="white"/>
</clipPath>
</defs>
</svg>
