<svg width="31" height="29" viewBox="0 0 31 29" fill="none" xmlns="http://www.w3.org/2000/svg">
<g clip-path="url(#clip0_162_475)">
<path d="M27.9939 2.35446L1.83572 12.4226C0.0704424 13.0619 0.0704424 14.1805 1.51476 14.5002L8.09443 16.5777L10.6621 24.2487C10.9831 25.0477 10.8226 25.3674 11.625 25.3674C12.2669 25.3674 12.5879 25.0477 12.9088 24.7281C13.0693 24.5683 14.5136 23.13 16.1184 21.5319L22.8586 26.486C24.1424 27.1253 24.9448 26.8057 25.2658 25.3674L29.7592 4.43202C30.2406 2.67409 29.1173 1.71521 27.9939 2.35446ZM24.6239 7.14882L12.1064 18.4955L11.625 23.7692L9.05731 16.0983L23.8215 6.82919C24.4634 6.34976 25.1053 6.66938 24.6239 7.14882Z" fill="#6B6BDA"/>
</g>
<defs>
<clipPath id="clip0_162_475">
<rect width="31" height="29" fill="white"/>
</clipPath>
</defs>
</svg>
