<svg width="34" height="34" viewBox="0 0 34 34" fill="none" xmlns="http://www.w3.org/2000/svg">
<g clip-path="url(#clip0_162_487)">
<path d="M17 0C26.3888 0 34 7.61116 34 17C34 26.3888 26.3888 34 17 34C7.61116 34 0 26.3888 0 17C0 7.61116 7.61116 0 17 0ZM24.5506 10.2C23.9029 10.2115 22.9093 10.5526 18.1274 12.5162C16.4525 13.204 13.1053 14.6274 8.08553 16.7866C7.2704 17.1066 6.8434 17.4197 6.80453 17.7258C6.7299 18.3136 7.58695 18.4965 8.6653 18.8426C9.54448 19.1247 10.7271 19.4548 11.3419 19.4679C11.8996 19.4798 12.5221 19.2528 13.2093 18.787C17.8994 15.6613 20.3204 14.0815 20.4724 14.0474C20.5797 14.0234 20.7283 13.9932 20.829 14.0815C20.9296 14.1699 20.9197 14.3372 20.9091 14.3821C20.8238 14.741 16.418 18.6974 16.1644 18.9574L16.0429 19.0796C15.1086 20.0024 14.1643 20.6049 15.7936 21.6648C17.2646 22.6219 18.1208 23.2324 19.6363 24.2132C20.6048 24.84 21.3641 25.5833 22.3641 25.4924C22.8242 25.4506 23.2995 25.0235 23.5408 23.7495C24.1113 20.7388 25.2326 14.2156 25.4917 11.5275C25.5144 11.292 25.4858 10.9906 25.4629 10.8583C25.44 10.7259 25.392 10.5374 25.2178 10.3979C25.0115 10.2326 24.693 10.1978 24.5506 10.2Z" fill="#595AAD"/>
</g>
<defs>
<clipPath id="clip0_162_487">
<rect width="34" height="34" fill="white"/>
</clipPath>
</defs>
</svg>
